<?xml version="1.0" encoding="UTF-8" standalone="no"?>
<!-- Created with Inkscape (http://www.inkscape.org/) -->

<svg
   xmlns:dc="http://purl.org/dc/elements/1.1/"
   xmlns:cc="http://creativecommons.org/ns#"
   xmlns:rdf="http://www.w3.org/1999/02/22-rdf-syntax-ns#"
   xmlns:svg="http://www.w3.org/2000/svg"
   xmlns="http://www.w3.org/2000/svg"
   xmlns:sodipodi="http://sodipodi.sourceforge.net/DTD/sodipodi-0.dtd"
   xmlns:inkscape="http://www.inkscape.org/namespaces/inkscape"
   width="297mm"
   height="210mm"
   viewBox="0 0 297 210"
   version="1.1"
   id="svg8"
   inkscape:version="0.92.3 (2405546, 2018-03-11)"
   sodipodi:docname="logo.svg">
  <defs id="defs2">
	
<clipPath
   clipPathUnits="userSpaceOnUse"
   id="clipPath3425">
  <rect
     style="fill:none;fill-opacity:1;stroke:#aa0000;stroke-width:0.26685798;stroke-miterlimit:4;stroke-dasharray:none"
     id="rect3427"
     width="68.227325"
     height="56.039536"
     x="8.2811594"
     y="106.15879" />
</clipPath>
</defs>
  <sodipodi:namedview
     id="base"
     pagecolor="#ffffff"
     bordercolor="#666666"
     borderopacity="1.0"
     inkscape:pageopacity="0.0"
     inkscape:pageshadow="2"
     inkscape:zoom="1.8529742"
     inkscape:cx="230.76589"
     inkscape:cy="667.90859"
     inkscape:document-units="mm"
     inkscape:current-layer="layer1"
     showgrid="false"
     inkscape:window-width="2560"
     inkscape:window-height="1017"
     inkscape:window-x="-8"
     inkscape:window-y="-8"
     inkscape:window-maximized="1" />
  <metadata
     id="metadata5">
    <rdf:RDF>
      <cc:Work
         rdf:about="">
        <dc:format>image/svg+xml</dc:format>
        <dc:type
           rdf:resource="http://purl.org/dc/dcmitype/StillImage" />
        <dc:title></dc:title>
      </cc:Work>
    </rdf:RDF>
  </metadata>
  <g
     inkscape:label="Layer 1"
     inkscape:groupmode="layer"
     id="layer1"
     transform="translate(0,-87)">
    <g
       id="g3545"
       inkscape:export-xdpi="96"
       inkscape:export-ydpi="96">
      <rect
         y="94.464401"
         x="8.7732782"
         height="67.73333"
         width="67.73333"
         id="rect3047"
         style="fill:#c8beb7;fill-opacity:1;stroke:none;stroke-width:0.13828123;stroke-miterlimit:4;stroke-dasharray:none" />
      <path
         style="clip-rule:evenodd;fill:#8dc63f;fill-rule:evenodd;stroke-width:0.15066683"
         inkscape:connector-curvature="0"
         d="m 13.627595,142.64601 c -1.590297,-0.022 -2.539716,-0.91915 -3.2959,-2.08164 -0.3570937,-0.54904 -0.11624,-0.83524 0.507264,-0.90688 1.909834,-0.21935 2.992707,0.89031 2.788636,2.98852 z"
         id="path830" />
      <path
         clip-path="url(#clipPath3425)"
         sodipodi:nodetypes="ccccccccccccccccccccccccscccccccccccccccccccccccccccccccccccccccccccccccccccsc"
         inkscape:connector-curvature="0"
         id="path834"
         d="m 37.941444,110.38473 c -0.385255,-0.009 -0.859214,0.0572 -1.450959,0.17551 -0.07578,0.015 -0.152025,0.0367 -0.228401,0.0408 3.544528,7.94807 1.283051,4.66727 -1.006292,1.28876 1.076591,6.01989 0.659712,12.02945 0.879402,18.04152 0.03043,0.58761 0.233846,1.20775 0.508662,1.73344 0.875223,1.67405 1.86361,3.28956 2.726479,4.96965 0.656304,1.27826 0.811101,4.49723 0.359705,5.86785 -1.072599,-2.78811 -0.964733,-5.93871 -3.241762,-8.55791 v 2.35796 2.06443 c -0.156702,0.004 -0.313342,0.006 -0.470043,0.009 -1.693636,-9.06124 -1.80741,-18.24726 -1.726806,-27.41594 -1.030411,-0.14434 -1.288156,0.26131 -1.296484,1.03166 -0.01388,1.27298 -0.07328,2.54686 -0.154481,3.81775 -0.167997,2.63123 -0.363313,5.26014 -0.547281,7.89034 -0.142375,-0.002 -0.284638,-0.002 -0.427013,-0.004 L 31.081496,111.5016 c -2.487661,0.54541 -3.737158,1.26523 -5.592923,2.47086 -0.294855,0.19153 -0.45957,0.68169 -0.557212,1.06589 -1.876707,7.3777 -2.267304,14.85143 -1.427787,22.40435 0.08658,0.77767 0.102702,1.56404 0.151171,2.3458 -0.08045,0.0128 -0.161634,0.028 -0.241644,0.0408 -0.110901,-0.34893 -0.261671,-0.69054 -0.326603,-1.04823 -0.309619,-1.70721 -0.725095,-3.4093 -0.861748,-5.13186 -0.23293,-2.93621 -1.942938,-5.0527 -3.666566,-7.18748 -0.416143,-0.51529 -0.776879,-0.23146 -0.932366,0.23502 -0.10441,0.31293 -0.03619,0.6886 -0.02317,1.03499 0.117072,3.10841 0.238071,6.21663 0.358601,9.32474 -0.09839,0.0149 -0.196075,0.0314 -0.294605,0.0463 -0.427442,-2.65519 -0.855951,-5.31124 -1.283242,-7.96646 -0.162872,-0.029 -0.324677,-0.0579 -0.487699,-0.0871 -0.605529,1.38012 -1.68396,2.74504 -1.729013,4.14323 -0.137399,4.26312 -0.246019,8.58763 0.317776,12.79711 0.736171,5.49748 1.936655,10.93498 3.071839,16.37542 h 4.033997 c -1.132537,-1.27046 -1.826096,-2.92756 -1.83825,-4.7534 -0.02652,-3.99402 3.313511,-7.31245 7.394922,-7.34747 4.126312,-0.0354 7.533344,3.28666 7.521814,7.33643 -0.0051,1.82685 -0.700766,3.48999 -1.839352,4.76444 h 18.552408 c -1.177491,-1.33848 -1.868798,-3.08763 -1.800738,-4.98951 0.141926,-3.957 3.541147,-7.12994 7.561541,-7.05841 4.154329,0.0739 7.482814,3.47176 7.345268,7.49864 -0.05955,1.7436 -0.725839,3.32321 -1.789705,4.54928 h 3.99317 c 1.338694,-6.95468 1.849409,-14.07315 4.386094,-20.75659 0.309325,-0.81526 0.708339,-1.68702 0.836258,-2.57128 -0.127919,-0.0337 -0.255108,-0.0668 -0.38288,-0.10036 -2.240263,2.56074 -2.574656,6.04184 -4.058274,8.97276 -0.09032,-0.22887 -0.132958,-0.43116 -0.08385,-0.60796 0.833948,-3.00536 1.671566,-6.00962 2.533383,-9.00698 0.08092,-0.28159 0.296501,-0.54407 0.500945,-0.76796 1.009914,-1.10498 1.570506,-2.80737 0.149122,-3.83175 0.367627,1.389 -0.912066,2.25865 -1.687249,3.25909 -0.570719,0.73645 -0.883079,1.66872 -1.348337,2.49256 -0.221184,0.39189 -0.531024,0.73408 -0.799962,1.09898 -0.282953,-2.00672 0.412178,-3.58317 1.548056,-5.01601 0.303896,-0.38361 0.672641,-0.82088 0.731547,-1.27001 0.09431,-0.71869 -0.04524,-1.46795 -0.08607,-2.20457 -0.598302,0.25072 -1.246193,0.42446 -1.785282,0.76797 -1.126234,0.71734 -1.538982,0.60752 -1.864731,-0.66426 -0.851262,-3.32611 -1.690846,-6.65449 -2.543313,-9.98016 -0.06901,-0.2691 -0.202224,-0.5218 -0.351982,-0.89817 -2.127566,2.08493 -3.735476,4.53186 -6.288218,5.92853 -0.07941,-0.07 -0.158922,-0.14071 -0.238334,-0.21074 1.564279,-2.63459 3.251597,-5.19537 5.88327,-7.42914 -2.583548,0.10804 -4.55449,-0.6984 -5.986987,-2.412 -0.785509,7.12682 -2.363093,13.49396 -3.62464,20.07067 -0.182004,-0.026 -0.36418,-0.0534 -0.546186,-0.0794 -0.03803,-6.69669 -0.347814,-13.37181 2.286228,-20.35204 -2.004014,0.51483 -3.679523,0.89735 -5.324961,1.38144 -1.666521,0.49044 -2.64964,1.66039 -3.347685,3.26272 -0.720789,1.65508 -1.743392,3.17926 -2.788266,5.03367 -0.168446,-0.5888 -0.248116,-0.79995 -0.28909,-1.01842 -0.782112,-4.17045 -1.577076,-8.33922 -2.331464,-12.51465 -0.335383,-1.85648 -0.691309,-2.53182 -1.847075,-2.55435 z"
         style="clip-rule:evenodd;fill:#ffffff;fill-rule:evenodd;stroke:#a97c50;stroke-width:0.28246793;stroke-miterlimit:4;stroke-dasharray:none" />
      <path
         style="clip-rule:evenodd;fill:#ffffff;fill-rule:evenodd;stroke:#754c29;stroke-width:0.28246796;stroke-miterlimit:4;stroke-dasharray:none"
         inkscape:connector-curvature="0"
         d="m 66.289755,129.45732 c -0.617886,-0.58984 -0.759362,-1.00766 -0.331768,-1.82366 0.626623,-1.19705 0.937598,-2.56193 1.359465,-3.8628 0.09341,-0.28776 0.03105,-0.63248 0.149015,-0.9037 0.09342,-0.21439 0.353615,-0.35632 0.539689,-0.53048 0.16648,0.18085 0.406499,0.33341 0.487859,0.5466 0.604626,1.58141 0.746855,1.64679 2.147453,0.69533 0.860157,-0.58427 1.658842,-1.26183 2.538285,-1.81282 0.260051,-0.1627 0.700902,-0.0365 1.058736,-0.0425 -0.125955,0.30858 -0.166779,0.71522 -0.391282,0.91079 -1.945861,1.6944 -3.939485,3.33365 -5.884895,5.02865 -0.597847,0.52101 -1.090227,1.16284 -1.672553,1.79458 z"
         id="path880" />
      <path
         inkscape:connector-curvature="0"
         id="path902"
         d="m 25.110117,153.43682 c -0.410832,-0.009 -0.790802,0.10249 -1.121046,0.29019 0.08507,0.10804 0.142012,0.2397 0.141243,0.38839 -0.0018,0.35626 -0.291966,0.63546 -0.646587,0.62122 -0.132083,-0.004 -0.24487,-0.0585 -0.340947,-0.13239 -0.15762,0.2978 -0.258856,0.63241 -0.269226,0.99746 -0.03555,1.24857 0.8784,2.25166 2.095337,2.30056 1.265299,0.0508 2.302991,-0.94444 2.309397,-2.2156 0.0064,-1.22327 -0.960417,-2.22654 -2.168162,-2.24981 z"
         style="clip-rule:evenodd;fill:#754c29;fill-rule:evenodd;stroke-width:0.15066682" />
      <circle
         r="0.93556046"
         cy="116.62948"
         cx="53.709431"
         id="path2357"
         style="fill:#000000;fill-opacity:1;stroke-width:0.35901934" />
      <circle
         r="2.1140552"
         cy="125.25003"
         cx="42.482208"
         id="path2357-5"
         style="fill:#000000;fill-opacity:1;stroke-width:0.81126422" />
      <circle
         r="1.52861"
         cy="110.35165"
         cx="39.345184"
         id="path2357-0"
         style="fill:#000000;fill-opacity:1;stroke-width:0.58660084" />
      <circle
         r="1.7584354"
         cy="139.11867"
         cx="23.766171"
         id="path2357-9"
         style="fill:#000000;fill-opacity:1;stroke-width:0.67479593" />
      <circle
         r="1.11643"
         cy="126.12231"
         cx="17.634785"
         id="path2357-9-4"
         style="fill:#000000;fill-opacity:1;stroke-width:0.4284277" />
      <circle
         r="0.90347826"
         cy="131.60556"
         cx="68.610497"
         id="path2357-9-5"
         style="fill:#000000;fill-opacity:1;stroke-width:0.34670788" />
      <circle
         r="1.3452057"
         cy="122.0448"
         cx="73.76918"
         id="path2357-9-3"
         style="fill:#000000;fill-opacity:1;stroke-width:0.51621991" />
      <circle
         r="1.1556818"
         cy="139.10896"
         cx="71.817802"
         id="path2357-9-33"
         style="fill:#000000;fill-opacity:1;stroke-width:0.44349045" />
      <circle
         r="1.5592074"
         cy="142.45032"
         cx="13.983211"
         id="path2357-9-58"
         style="fill:#000000;fill-opacity:1;stroke-width:0.5983426" />
      <circle
         r="1.1520971"
         cy="129.00858"
         cx="15.848031"
         id="path2357-9-4-5"
         style="fill:#000000;fill-opacity:1;stroke-width:0.44211483" />
      <circle
         r="1.2565632"
         cy="117.83521"
         cx="56.151642"
         id="path2357-94"
         style="fill:#000000;fill-opacity:1;stroke-width:0.48220342" />
      <circle
         r="1.2565632"
         cy="137.10358"
         cx="51.813744"
         id="path2357-8"
         style="fill:#000000;fill-opacity:1;stroke-width:0.48220342" />
      <circle
         r="1.2565632"
         cy="126.94411"
         cx="56.085377"
         id="path2357-6"
         style="fill:#000000;fill-opacity:1;stroke-width:0.48220342" />
      <circle
         r="1.0043596"
         cy="121.71916"
         cx="62.658497"
         id="path2357-00"
         style="fill:#000000;fill-opacity:1;stroke-width:0.38542083" />
      <circle
         r="1.2565632"
         cy="119.24757"
         cx="61.296593"
         id="path2357-2"
         style="fill:#000000;fill-opacity:1;stroke-width:0.48220342" />
      <circle
         r="0.82855958"
         cy="142.20674"
         cx="39.707973"
         id="path2357-8-2"
         style="fill:#000000;fill-opacity:1;stroke-width:0.31795794" />
      <circle
         r="1.2565632"
         cy="138.01152"
         cx="36.17205"
         id="path2357-8-6"
         style="fill:#000000;fill-opacity:1;stroke-width:0.48220342" />
      <circle
         r="1.2565632"
         cy="124.36296"
         cx="32.023674"
         id="path2357-8-6-3"
         style="fill:#000000;fill-opacity:1;stroke-width:0.48220342" />
      <circle
         r="1.0782284"
         cy="110.85098"
         cx="33.548088"
         id="path2357-8-6-4"
         style="fill:#000000;fill-opacity:1;stroke-width:0.41376781" />
      <circle
         r="0.93556046"
         cy="131.32272"
         cx="36.503197"
         id="path2357-8-6-6"
         style="fill:#000000;fill-opacity:1;stroke-width:0.35901934" />
      <circle
         r="1.0043596"
         cy="137.15404"
         cx="17.968027"
         id="path2357-8-6-48"
         style="fill:#000000;fill-opacity:1;stroke-width:0.38542083" />
      <circle
         r="0.6747027"
         cy="133.4326"
         cx="70.491562"
         id="path2357-9-5-8"
         style="fill:#000000;fill-opacity:1;stroke-width:0.25891578" />
      <circle
         r="1.1052411"
         cy="140.37357"
         cx="66.869545"
         id="path2357-9-5-0"
         style="fill:#000000;fill-opacity:1;stroke-width:0.42413396" />
      <circle
         r="0.75215608"
         cy="147.81285"
         cx="67.311279"
         id="path2357-9-5-04"
         style="fill:#000000;fill-opacity:1;stroke-width:0.28863835" />
      <path
         style="clip-rule:evenodd;fill:#8dc63f;fill-rule:evenodd;stroke-width:0.15066683"
         inkscape:connector-curvature="0"
         d="m 67.662621,118.55243 c 0.650259,1.13676 1.249584,2.01033 1.663777,2.96416 0.315192,0.72616 0.03401,1.4059 -0.810952,1.6198 -0.838289,0.21202 -1.307713,-0.20178 -1.475251,-1.03333 -0.226571,-1.12394 -0.164751,-2.1916 0.62249,-3.5506 z"
         id="path828" />
      <circle
         r="0.65127468"
         cy="118.5414"
         cx="67.752998"
         id="path2357-9-5-9"
         style="fill:#000000;fill-opacity:1;stroke-width:0.2499253" />
      <circle
         r="1.9122925"
         cy="129.04976"
         cx="65.476379"
         id="path2357-9-3-1"
         style="fill:#000000;fill-opacity:1;stroke-width:0.7338382" />
      <circle
         r="0.65127468"
         cy="115.47848"
         cx="38.084152"
         id="path2357-9-5-9-5"
         style="fill:#000000;fill-opacity:1;stroke-width:0.2499253" />
      <circle
         r="0.65127468"
         cy="110.5386"
         cx="36.300804"
         id="path2357-9-5-9-4"
         style="fill:#000000;fill-opacity:1;stroke-width:0.2499253" />
      <circle
         inkscape:transform-center-y="-0.26727436"
         inkscape:transform-center-x="-0.033408691"
         r="0.65127468"
         cy="112.00094"
         cx="35.337795"
         id="path2357-9-5-9-1"
         style="fill:#000000;fill-opacity:1;stroke-width:0.2499253" />
      <path
         id="path902-9"
         d="m 54.914799,153.43678 c -0.410832,-0.009 -0.790802,0.10249 -1.121043,0.29019 0.08507,0.10804 0.142011,0.2397 0.141242,0.38839 -0.0018,0.35626 -0.291963,0.63546 -0.646584,0.62121 -0.132083,-0.004 -0.24487,-0.0583 -0.34095,-0.13238 -0.15762,0.2978 -0.258855,0.6324 -0.269226,0.99746 -0.03555,1.24857 0.8784,2.25166 2.095337,2.30056 1.2653,0.0508 2.302992,-0.94444 2.309397,-2.2156 0.0064,-1.22328 -0.960417,-2.22654 -2.168162,-2.24981 z"
         style="clip-rule:evenodd;fill:#754c29;fill-rule:evenodd;stroke-width:0.15066683"
         inkscape:connector-curvature="0" />
      <path
         sodipodi:nodetypes="cccccc"
         style="clip-rule:evenodd;fill:#8dc63f;fill-rule:evenodd;stroke-width:0.15066683"
         inkscape:connector-curvature="0"
         d="m 22.519454,112.09888 c 1.220731,0.47419 2.23626,0.77591 3.158419,1.25652 0.701937,0.36597 0.911199,1.07118 0.389155,1.76918 -0.518037,0.69233 -1.214597,1.23683 -1.868112,0.69601 -0.883403,-0.73088 -1.43594,-2.17021 -1.679398,-3.72177 z"
         id="path828-2" />
      <path
         sodipodi:nodetypes="cccccc"
         style="clip-rule:evenodd;fill:#8dc63f;fill-rule:evenodd;stroke-width:0.15066683"
         inkscape:connector-curvature="0"
         d="m 25.458362,110.22664 c 0.415071,1.19394 0.0748,2.16003 1.413665,3.09129 0.254237,0.74966 -0.08203,1.40391 -0.94177,1.54741 -0.852924,0.14221 -1.286613,-0.30894 -1.384988,-1.1515 -0.133107,-1.13879 0.01666,-2.19776 0.913185,-3.4872 z"
         id="path828-2-5" />
    </g>
  </g>
</svg>
